<svg width="1320" height="224" viewBox="0 0 1320 224" fill="none" xmlns="http://www.w3.org/2000/svg">
<g clip-path="url(#clip0_48_5107)">
<path d="M57.3275 62.078C51.7797 68.0607 47.5072 75.7161 44.4464 84.7223V51.7851H0V218.98H44.7652V137.795C44.7652 128.724 46.2956 120.812 49.4203 114.186C52.5449 107.495 56.9449 102.349 62.6203 98.7464C68.2956 95.1439 75.0551 93.2783 82.8985 93.2783C85.8956 93.2783 88.5739 93.5356 90.9971 94.0503C93.4203 94.5649 95.7159 95.3369 97.884 96.3018V52.0425C94.6956 50.2412 90.5507 49.3406 85.5768 49.3406C74.5449 49.3406 65.171 53.5864 57.3275 62.078Z" fill="#1A3821"/>
<path d="M239.194 55.7102C230.713 50.4351 220.637 47.8619 209.031 47.8619C197.426 47.8619 187.478 50.3064 178.678 55.2599C169.878 60.2133 162.863 67.0323 157.634 75.717V0H112.869V219.045H157.634V127.889C157.634 119.59 159.165 112.321 162.162 106.081C165.159 99.8409 169.304 94.9518 174.597 91.5423C179.889 88.1327 185.947 86.3958 192.771 86.3958C201.953 86.3958 208.904 89.355 213.495 95.2091C218.087 101.063 220.382 110.069 220.382 122.164V219.11H265.402V112.192C265.402 99.0689 263.171 87.6824 258.643 78.0972C254.116 68.5119 247.611 61.0496 239.13 55.8388L239.194 55.7102Z" fill="#1A3821"/>
<path d="M395.427 143.006C395.427 151.112 393.96 158.252 391.091 164.493C388.158 170.733 384.076 175.622 378.784 179.031C373.491 182.441 367.433 184.178 360.61 184.178C351.172 184.178 344.221 181.218 339.566 175.236C334.975 169.253 332.679 160.375 332.679 148.41V51.7855H287.914V158.124C287.914 171.247 290.146 182.634 294.673 192.348C299.201 202.061 305.642 209.524 314.059 214.735C322.476 220.01 332.552 222.583 344.413 222.583C356.273 222.583 365.711 220.138 374.575 215.314C383.502 210.489 390.453 203.477 395.427 194.406V218.916H440.192V51.7855H395.427V142.942V143.006Z" fill="#1A3821"/>
<path d="M601.397 59.377C589.472 51.7217 576.4 47.8619 562.18 47.8619C549.936 47.8619 539.096 50.5637 529.594 56.0318C520.093 61.4999 512.632 69.1553 507.212 79.0621V0H462.446V219.045H507.212V194.214C512.632 203.091 520.029 210.039 529.403 214.992C538.84 219.946 549.554 222.39 561.542 222.39C576.145 222.39 589.345 218.595 601.206 211.004C613.003 203.413 622.313 192.991 629.136 179.675C635.959 166.359 639.339 151.498 639.339 135.158C639.339 118.818 635.959 104.28 629.264 90.8989C622.568 77.5825 613.258 67.0967 601.333 59.377H601.397ZM588.516 160.698C584.817 168.096 579.716 173.821 573.212 177.938C566.707 182.055 559.119 184.178 550.51 184.178C541.901 184.178 534.058 181.991 527.554 177.681C521.049 173.371 516.012 167.71 512.568 160.891C509.061 154.007 507.339 147.059 507.339 139.983V130.591C507.339 123.707 509.061 116.888 512.568 110.134C516.075 103.379 521.049 97.7823 527.554 93.3435C534.058 88.9047 541.71 86.6531 550.51 86.6531C559.31 86.6531 566.643 88.7117 573.212 92.8289C579.716 96.946 584.817 102.736 588.516 110.069C592.214 117.467 594.064 125.895 594.064 135.351C594.064 144.808 592.214 153.299 588.516 160.633V160.698Z" fill="#1A3821"/>
<path d="M785.751 76.6163C780.139 67.3527 772.679 60.212 763.368 55.2586C754.058 50.3052 743.473 47.8606 731.676 47.8606C717.264 47.8606 704.064 51.7204 692.203 59.3757C680.279 67.0311 670.905 77.5813 664.145 90.8977C657.322 104.214 653.942 119.074 653.942 135.414C653.942 151.754 657.322 166.55 664.145 179.802C670.968 193.054 680.215 203.412 691.948 211.003C703.682 218.594 716.818 222.389 731.421 222.389C743.409 222.389 754.122 219.752 763.432 214.541C772.742 209.266 780.203 201.482 785.815 191.189V219.044H830.835V51.7848H785.815V76.6163H785.751ZM785.751 139.66C785.751 146.737 784.029 153.684 780.65 160.568C777.27 167.451 772.296 173.112 765.792 177.551C759.287 181.99 751.508 184.241 742.516 184.241C734.099 184.241 726.638 182.183 720.134 178.001C713.629 173.884 708.528 168.03 704.829 160.568C701.131 153.105 699.282 144.614 699.282 135.093C699.282 125.572 701.067 117.145 704.702 109.811C708.337 102.413 713.438 96.7518 720.006 92.6989C726.638 88.6461 734.226 86.6519 742.835 86.6519C751.444 86.6519 759.351 88.8391 765.983 93.1492C772.615 97.5237 777.525 103.056 780.841 109.811C784.157 116.566 785.815 123.385 785.815 130.268V139.66H785.751Z" fill="#1A3821"/>
<path d="M910.799 62.0781C905.251 68.0608 900.979 75.7161 897.918 84.7224V51.7852H853.472V218.98H898.237V137.795C898.237 128.724 899.767 120.812 902.892 114.186C906.017 107.495 910.417 102.349 916.092 98.7464C921.767 95.1439 928.527 93.2784 936.37 93.2784C939.367 93.2784 942.046 93.5357 944.469 94.0503C946.892 94.565 949.188 95.3369 951.356 96.3019V52.0425C948.167 50.2413 944.022 49.3406 939.048 49.3406C928.017 49.3406 918.643 53.5864 910.799 62.0781Z" fill="#1A3821"/>
<path d="M1105.23 59.377C1093.31 51.7217 1080.23 47.8619 1066.01 47.8619C1053.77 47.8619 1042.93 50.5637 1033.43 56.0318C1023.93 61.4999 1016.46 69.1553 1011.04 79.0621V0H966.279V219.045H1011.04V194.214C1016.46 203.091 1023.86 210.039 1033.24 214.992C1042.67 219.946 1053.39 222.39 1065.37 222.39C1079.98 222.39 1093.18 218.595 1105.04 211.004C1116.84 203.413 1126.15 192.991 1132.97 179.675C1139.79 166.359 1143.17 151.498 1143.17 135.158C1143.17 118.818 1139.79 104.28 1133.1 90.8989C1126.4 77.5825 1117.09 67.0967 1105.17 59.377H1105.23ZM1092.35 160.698C1088.65 168.096 1083.55 173.821 1077.04 177.938C1070.54 182.055 1062.95 184.178 1054.34 184.178C1045.73 184.178 1037.89 181.991 1031.39 177.681C1024.88 173.371 1019.84 167.71 1016.4 160.891C1012.89 154.007 1011.17 147.059 1011.17 139.983V130.591C1011.17 123.707 1012.89 116.888 1016.4 110.134C1019.91 103.379 1024.88 97.7823 1031.39 93.3435C1037.89 88.9047 1045.54 86.6531 1054.34 86.6531C1063.14 86.6531 1070.48 88.7117 1077.04 92.8289C1083.55 96.946 1088.65 102.736 1092.35 110.069C1096.05 117.467 1097.9 125.895 1097.9 135.351C1097.9 144.808 1096.05 153.299 1092.35 160.633V160.698Z" fill="#1A3821"/>
<path d="M1319.3 142.172C1319.75 136.832 1320 132.586 1320 129.37C1320 115.667 1317.51 103.38 1312.79 92.4442C1311.97 90.3213 1311.14 88.3914 1310.24 86.6544C1303.74 74.3673 1294.68 64.7177 1283.08 57.7057C1271.47 50.758 1258.15 47.2842 1243.16 47.2842C1226.96 47.2842 1212.36 51.144 1199.29 58.928C1186.28 66.712 1176.14 77.3265 1168.81 90.9002C1161.47 104.41 1157.84 119.592 1157.84 136.318C1157.84 153.043 1161.66 168.097 1169.25 181.285C1170.72 183.793 1172.63 186.753 1175.06 189.905C1175.5 190.484 1176.01 191.063 1176.46 191.706C1177.99 193.636 1179.77 195.566 1181.69 197.56C1182.45 198.332 1183.22 199.104 1184.05 199.876C1186.28 201.935 1188.7 203.993 1191.38 205.987C1191.57 206.116 1191.76 206.245 1191.95 206.373C1203.24 214.543 1218.86 221.555 1239.97 223.292C1251.39 224.257 1263.12 222.971 1271.54 221.105C1285.63 218.082 1298.64 211.52 1306.29 206.888V166.875C1299.85 171.313 1272.68 189.519 1239.01 183.986C1232.51 182.893 1226.83 181.156 1221.92 178.84C1215.42 174.916 1210.26 169.769 1206.62 163.143C1204.26 158.898 1202.6 154.201 1201.58 149.119H1318.79C1319.04 146.803 1319.17 144.488 1319.3 142.172ZM1242.84 82.087C1250.05 82.087 1256.42 83.6309 1262.03 86.6544C1267.65 89.678 1271.92 93.9238 1274.92 99.3919C1277.79 104.603 1279.25 110.585 1279.38 117.211H1201.39C1202.28 112.644 1203.69 108.398 1205.54 104.538C1209.17 97.269 1214.21 91.7365 1220.71 87.8767C1227.22 84.0169 1234.55 82.087 1242.78 82.087H1242.84Z" fill="#1A3821"/>
</g>
<defs>
<clipPath id="clip0_48_5107">
<rect width="1320" height="223.548" fill="white"/>
</clipPath>
</defs>
</svg>
