<svg width="1403" height="403" viewBox="0 0 1403 403" fill="none" xmlns="http://www.w3.org/2000/svg">
<path d="M156.476 0C202.128 0.000182136 239.119 37.0016 239.145 82.666V196.095C239.145 241.759 202.153 278.76 156.501 278.761H109.535V403H0V0H156.476ZM428.167 91.5059H360.093V145.505H421.35V228.929H360.093V311.494H428.167V403H323.707C283.307 403 250.558 370.242 250.558 329.831V0H428.167V91.5059ZM587.647 209.481C588.001 211.476 589.718 212.916 591.737 212.916H593.253L580.375 126.891V0H678.725V403H568.785L531.845 190.942C531.542 189.174 530.026 187.912 528.259 187.912H525.961L538.334 273.937V403H443.898V0H551.16L587.647 209.481ZM1000.92 403H891.382V0H1000.92V403ZM1129.34 311.494H1187.51V403H1092.95C1052.55 403 1019.8 370.242 1019.8 329.831V0H1129.34V311.494ZM1403 63.5469C1403 82.0095 1399.49 100.32 1392.65 117.47L1315.28 311.494H1403V403H1197.77V339.276C1197.77 320.94 1201.28 302.73 1208.07 285.682L1285.49 91.5059H1197.77V0H1403V63.5469ZM875.701 91.5059H807.626V311.469H875.701V402.975H778.993C734.326 402.975 698.116 366.757 698.116 322.077V80.8984C698.116 36.2189 734.326 0 778.993 0H875.701V91.5059ZM109.535 74.5078V201.5H127.917V74.5078H109.535Z" fill="#212121"/>
</svg>
