<svg width="39" height="19" viewBox="0 0 39 19" fill="none" xmlns="http://www.w3.org/2000/svg">
<path d="M9.45174 0C4.25242 0 0 4.21066 0 9.45174C0 14.6928 4.2526 18.9035 9.45174 18.9035C14.6509 18.9035 18.9035 14.6509 18.9035 9.45174C18.9035 4.2526 14.6928 0 9.45174 0ZM15.4227 14.1338C15.5083 13.7042 15.5938 13.2745 15.5938 12.8013C15.5938 9.40792 12.8449 6.70103 9.4936 6.70103C6.14219 6.70103 3.39336 9.44993 3.39336 12.8013C3.39336 13.2745 3.437 13.7042 3.56454 14.1338C2.53413 12.8449 1.93163 11.212 1.93163 9.45174C1.93163 5.24108 5.32497 1.84781 9.53555 1.84781C13.7479 1.84781 17.0557 5.24116 17.0557 9.45174C17.0557 11.2139 16.4548 12.8451 15.4227 14.1338Z" fill="black"/>
<path d="M29.2135 0C23.9725 0 19.7617 4.2526 19.7617 9.45174C19.7617 14.6509 24.0143 18.9035 29.2135 18.9035C34.4126 18.9035 38.6652 14.6509 38.6652 9.45174C38.6652 4.2526 34.4126 0 29.2135 0ZM35.1427 14.1338C35.2283 13.7042 35.3139 13.2745 35.3139 12.8013C35.3139 9.40792 32.565 6.70103 29.2136 6.70103C25.8623 6.70103 23.1134 9.44993 23.1134 12.8013C23.1134 13.2745 23.157 13.7042 23.2846 14.1338C22.2542 12.8449 21.6517 11.212 21.6517 9.45174C21.6517 5.24108 25.045 1.84781 29.2556 1.84781C33.4663 1.84781 36.7757 5.24116 36.7757 9.45174C36.7757 11.2139 36.1732 12.8451 35.1427 14.1338Z" fill="black"/>
</svg>
