<svg width="198" height="43" viewBox="0 0 198 43" fill="none" xmlns="http://www.w3.org/2000/svg">
<path d="M61.1462 38.7025H61.1444C61.0683 38.3844 60.7694 38.1735 60.6915 37.8882L58.6499 30.4919L58.7296 30.2338C60.2295 29.7649 59.0231 28.3434 58.2912 27.5963C57.918 27.211 57.1481 26.8838 56.9398 26.593C56.6953 26.2512 56.467 24.8771 56.1989 24.2518C54.699 20.7272 51.0523 18.1988 47.6739 16.6574C46.2808 16.0212 44.6232 15.0469 43.0798 15.4468C39.4731 16.3884 37.1978 19.8129 36.1127 23.1539C35.9714 23.5829 35.9025 24.0736 35.5312 24.3972C35.1091 24.6099 35.1743 24.4753 34.7124 24.3663C33.803 24.1554 33.4244 24.1045 33.149 25.0043C32.5639 26.922 33.8682 31.9025 34.4932 34.0437C34.8319 35.2107 34.9098 36.4395 35.2558 37.6301C35.3971 38.1099 36.6018 41.5163 36.7848 41.6272C37.5728 42.1143 40.1343 40.5784 40.3354 39.7168C40.8879 37.3556 40.1542 36.9557 39.7031 34.9871C39.5328 34.2346 39.1216 31.3026 39.3136 30.7137C39.3734 30.4774 39.5347 30.4538 39.7412 30.4156C40.944 30.1938 43.9675 30.3738 45.3569 30.4101C46.9963 30.452 48.6014 30.6483 50.2372 30.7773C51.286 30.8628 52.3585 30.661 53.3965 31.0572C53.7099 31.219 54.9761 34.1164 55.0848 34.6254C55.554 36.863 54.7895 39.515 57.5811 40.8256C59.1245 41.5508 61.5882 40.5875 61.1462 38.7061V38.7025ZM51.7715 25.6041C51.6574 26.1749 50.0524 25.9386 50.0524 25.9386C50.0524 25.9386 48.8187 25.8859 47.884 25.7459C46.951 25.6041 45.817 25.4551 44.7827 25.2933C43.1939 25.0443 41.6034 24.7753 40.002 24.7098C39.7955 24.5681 39.8354 24.4154 39.8589 24.2045C40.0183 22.7922 42.5599 20.4691 43.9494 20.291C44.1957 20.2583 44.3026 20.2801 44.5327 20.3364C45 20.4491 48.038 21.9615 48.5706 22.285C49.1865 22.6595 51.902 24.9516 51.7697 25.6041H51.7715Z" fill="#0D0B0C"/>
<path d="M74.5761 27.3529C74.9233 28.8813 76.003 30.1217 76.3382 31.6601C76.6734 33.1986 76.5931 36.4024 75.8144 37.7535C75.112 38.9738 72.2179 40.3029 71.0338 39.153C70.8391 38.9658 70.1166 37.6146 70.0845 37.377C69.9862 36.6641 70.6545 36.1305 70.9074 35.5566C72.0814 32.8784 70.815 31.9984 69.5386 29.9505C69.2857 29.5458 69.2175 29.0041 68.9345 28.5611C68.3124 27.5824 67.3671 27.4133 67.1704 25.9775C66.8051 23.3215 67.7805 22.4496 70.233 21.8253C79.5734 19.4471 83.8503 28.5228 89.5902 33.2509C91.1978 34.5759 91.9705 34.4531 93.9373 33.7946C99.6571 31.8776 98.2342 25.5627 95.1976 21.8273C93.7225 20.011 91.4165 19.0988 92.1812 16.2555C93.3994 11.7126 97.606 16.2796 98.8965 18.3014C102.631 24.1511 104.458 33.5308 98.0054 38.2348C97.3391 38.7221 93.1646 40.3572 92.3156 40.5123C87.7799 41.3319 86.3269 37.226 83.9787 34.3424C82.3651 32.3609 78.4556 28.2792 76.0592 27.5905C75.8325 27.526 74.6604 27.2804 74.5761 27.3569V27.3529Z" fill="#0D0B0C"/>
<path d="M181.27 30.5727C181.668 30.7097 181.82 30.7177 182.007 30.7439C184.778 31.1426 190.316 28.2167 192.848 26.8374C194.089 26.1628 195.813 24.2216 197.238 25.46C197.767 25.9191 198.064 26.7508 197.988 27.4475C197.856 28.6456 195.273 29.7693 194.297 30.464C191.594 32.3871 187.199 35.9674 183.773 36.0177C181.28 36.054 174.412 34.7753 172.056 33.8369C170.483 33.2107 170.18 32.5965 169.012 31.8091C166.832 30.3392 163.777 29.3988 164.542 26.0279C164.661 25.5043 165.192 25.601 165.241 24.8317C165.291 24.0826 164.917 22.671 164.935 21.8515C165.072 15.9031 172.173 13.1826 177.21 13.982C179.962 14.419 184.347 16.3058 185.822 18.7705C187.646 21.8172 186.781 25.3211 184.03 27.4274C183.233 28.2308 180.239 30.019 181.272 30.5727H181.27ZM170.567 26.054C170.679 26.3098 170.854 26.6863 171.087 27.1374C171.237 27.4294 171.314 27.5764 171.378 27.6589C171.777 28.1724 172.698 28.1503 173.431 28.0556C174.428 27.9268 175.639 27.5844 177.8 26.3863C178.717 25.8788 179.709 25.2687 180.77 24.3444C182.117 23.1704 182.306 22.5945 182.199 22.22C182.113 21.9159 181.718 21.5514 181.629 21.2494C181.485 20.7379 181.411 20.6896 181.182 20.3714C181.138 20.309 180.929 20.0271 180.556 19.7774C180.323 19.6223 180.12 19.5458 179.952 19.4773C179.177 19.1632 178.545 19.0303 178.45 19.0102C177.192 18.7524 176.024 18.5128 174.774 18.698C173.09 18.9477 170.483 20.0835 169.911 22.3629C169.666 23.3376 169.869 24.2216 170.061 24.7794" fill="#0D0B0C"/>
<path d="M133.787 29.3887C132.896 28.7423 131.861 28.698 131.7 28.7463C130.877 28.994 131.393 32.0024 131.221 34.1108C131.164 35.325 131.231 35.7962 128.985 36.4607C127.925 36.4869 127.991 36.199 127.076 35.2827C126.161 34.3665 126.793 34.5638 126.5 30.7097C126.299 28.7846 125.916 27.1152 124.838 25.4841C124.156 24.4531 123.355 24.4612 123.829 23.1301C124.642 20.8386 127.321 20.8688 129.163 21.8756C129.583 22.1052 130.297 22.6308 130.612 22.7194C131.269 22.9046 132.471 23.0395 133.244 23.2268C136.324 23.9678 140.786 29.5478 143.889 31.4185C147.276 33.4603 152.43 33.563 154.144 29.3947C154.427 28.706 154.865 26.2876 154.835 25.6311C154.788 24.5921 153.474 23.1463 153.303 21.4387C153.006 18.4826 155.551 16.5535 157.7 19.2075C161.596 24.0162 160.024 34.2739 154.006 36.8715C146.54 40.0914 141.416 35.8425 136.182 31.348C135.445 30.7157 134.939 30.2264 133.789 29.3907L133.787 29.3887Z" fill="#0D0B0C"/>
<path d="M19.7481 31.8233C20.5389 30.899 17.992 28.98 17.992 28.98C17.992 28.98 12.4889 25.2768 9.99025 23.0939C7.49158 20.9111 2.99999 15.3755 2.60662 11.622C2.29153 9.61637 2.72103 7.46576 5.17153 7.78392C7.17046 8.04369 6.70887 8.78673 7.18251 10.1198C10.2471 18.7585 18.5981 20.9836 24.0069 27.3509C34.7522 39.9988 10.9636 38.3738 5.09928 40.8667C3.3753 41.5997 2.15707 43.3113 0.603677 41.0157C-1.38121 38.0858 1.97444 36.3198 4.23227 35.5808C8.18198 34.286 11.4834 34.7008 15.5134 33.7584C16.3463 33.5631 18.9554 32.6227 19.7501 31.8253L19.7481 31.8233Z" fill="#0D0B0C"/>
<path d="M112.873 19.2518C114.734 21.3521 116.743 25.8808 117.375 28.6154C117.676 29.9163 117.61 31.346 118.095 32.6086C118.74 34.2759 120.933 35.3532 120.076 37.5018C119.958 37.7958 118.85 39.004 118.549 39.2356C116.245 41.0096 114.714 38.8047 113.546 36.9863C111.109 33.1925 110.3 27.8301 108.904 23.5027C108.38 21.8817 106.995 20.0069 108.077 18.2208C109.122 16.4971 111.882 18.1342 112.871 19.2518H112.873Z" fill="#0D0B0C"/>
<path d="M107.288 0.00504346C108.92 -0.135914 111.637 2.71345 112.356 4.08477C113.638 6.53139 111.366 8.0779 109.082 7.54629C108.809 7.48185 107.304 6.37835 107.057 6.13066C105.606 4.68685 104.318 0.260781 107.288 0.00504346Z" fill="#0D0B0C"/>
</svg>
