<svg width="179" height="31" viewBox="0 0 179 31" fill="none" xmlns="http://www.w3.org/2000/svg">
<g clip-path="url(#clip0_3_5)">
<path d="M7.8 8.37998C7.05 9.18998 6.47 10.22 6.04 11.44V6.99998H0V29.55H6.09V18.6C6.09 17.37 6.3 16.31 6.72 15.41C7.14 14.51 7.74 13.82 8.52 13.33C9.3 12.84 10.22 12.59 11.28 12.59C11.69 12.59 12.06 12.63 12.38 12.69C12.71 12.76 13.02 12.86 13.32 13V7.03998C12.88 6.78998 12.33 6.66998 11.65 6.66998C10.15 6.66998 8.87 7.23998 7.81 8.38998L7.8 8.37998Z" fill="#1D4537"/>
<path d="M32.5401 7.52C31.3801 6.81 30.0101 6.46 28.4301 6.46C26.8501 6.46 25.5001 6.79 24.3001 7.46C23.1001 8.13 22.1501 9.05 21.4401 10.22V0H15.3501V29.54H21.4401V17.24C21.4401 16.12 21.6401 15.14 22.0501 14.3C22.4601 13.46 23.0201 12.8 23.7501 12.34C24.4701 11.88 25.3001 11.65 26.2201 11.65C27.4701 11.65 28.4101 12.05 29.0401 12.83C29.6701 13.62 29.9801 14.83 29.9801 16.47V29.54H36.1101V15.12C36.1101 13.35 35.8001 11.82 35.1901 10.52C34.5801 9.23 33.6901 8.23 32.5301 7.52H32.5401Z" fill="#1D4537"/>
<path d="M53.64 19.28C53.64 20.37 53.44 21.34 53.05 22.18C52.65 23.02 52.1 23.68 51.38 24.14C50.66 24.6 49.83 24.83 48.91 24.83C47.63 24.83 46.68 24.43 46.05 23.62C45.42 22.82 45.11 21.61 45.11 20V6.98999H39.02V21.33C39.02 23.1 39.33 24.64 39.94 25.95C40.55 27.26 41.43 28.26 42.57 28.97C43.71 29.68 45.09 30.03 46.7 30.03C48.22 30.03 49.59 29.7 50.81 29.05C52.03 28.4 52.97 27.46 53.65 26.23V29.54H59.74V6.98999H53.65V19.29L53.64 19.28Z" fill="#1D4537"/>
<path d="M81.2201 8.01C79.6001 6.97 77.8201 6.46 75.8901 6.46C74.2301 6.46 72.7501 6.83 71.4601 7.56C70.1701 8.3 69.1501 9.33 68.4201 10.66V0H62.3301V29.54H68.4201V26.19C69.1601 27.39 70.1601 28.32 71.4401 28.99C72.7201 29.66 74.1801 29.99 75.8101 29.99C77.8001 29.99 79.6001 29.48 81.2001 28.46C82.8101 27.44 84.0701 26.03 85.0001 24.23C85.9301 22.43 86.3901 20.43 86.3901 18.22C86.3901 16.01 85.9301 14.05 85.0201 12.26C84.1101 10.46 82.8401 9.05 81.2201 8.01ZM79.4701 21.67C78.9701 22.67 78.2701 23.44 77.3901 24C76.5001 24.56 75.4801 24.84 74.3101 24.84C73.1401 24.84 72.0701 24.55 71.1901 23.96C70.3001 23.37 69.6201 22.62 69.1501 21.69C68.6701 20.76 68.4401 19.82 68.4401 18.87V17.6C68.4401 16.67 68.6801 15.76 69.1501 14.84C69.6301 13.93 70.3101 13.17 71.1901 12.57C72.0701 11.97 73.1201 11.67 74.3101 11.67C75.5001 11.67 76.5101 11.95 77.3901 12.51C78.2701 13.07 78.9701 13.84 79.4701 14.84C79.9701 15.83 80.2301 16.97 80.2301 18.25C80.2301 19.53 79.9801 20.67 79.4701 21.66V21.67Z" fill="#1D4537"/>
<path d="M106.26 10.33C105.5 9.08001 104.48 8.12001 103.22 7.45001C101.95 6.78001 100.52 6.45001 98.9101 6.45001C96.9501 6.45001 95.1601 6.97001 93.5401 8.00001C91.9201 9.04001 90.6501 10.45 89.7201 12.25C88.7901 14.05 88.3301 16.05 88.3301 18.25C88.3301 20.45 88.7901 22.45 89.7201 24.24C90.6501 26.02 91.9101 27.43 93.5001 28.45C95.0901 29.47 96.8801 29.98 98.8701 29.98C100.5 29.98 101.95 29.63 103.22 28.92C104.49 28.21 105.5 27.16 106.26 25.77V29.53H112.39V6.99001H106.26V10.34V10.33ZM106.26 18.83C106.26 19.78 106.03 20.72 105.57 21.65C105.11 22.58 104.43 23.34 103.55 23.94C102.66 24.54 101.61 24.84 100.38 24.84C99.2401 24.84 98.2201 24.56 97.3401 24C96.4501 23.44 95.7601 22.66 95.2601 21.65C94.7601 20.64 94.5001 19.5 94.5001 18.22C94.5001 16.94 94.7501 15.8 95.2401 14.81C95.7301 13.82 96.4201 13.05 97.3201 12.5C98.2201 11.95 99.2501 11.68 100.42 11.68C101.59 11.68 102.67 11.97 103.57 12.56C104.47 13.15 105.14 13.89 105.59 14.81C106.04 15.72 106.26 16.64 106.26 17.57V18.84V18.83Z" fill="#1D4537"/>
<path d="M122.76 8.37998C122.01 9.18998 121.43 10.22 121 11.44V6.99998H114.95V29.55H121.04V18.6C121.04 17.37 121.25 16.31 121.67 15.41C122.09 14.51 122.69 13.82 123.47 13.33C124.25 12.84 125.17 12.59 126.23 12.59C126.64 12.59 127.01 12.63 127.33 12.69C127.66 12.76 127.97 12.86 128.27 13V7.03998C127.83 6.78998 127.28 6.66998 126.59 6.66998C125.09 6.66998 123.81 7.23998 122.75 8.38998L122.76 8.37998Z" fill="#1D4537"/>
<path d="M149.21 8.01C147.59 6.97 145.81 6.46 143.88 6.46C142.22 6.46 140.74 6.83 139.45 7.56C138.16 8.3 137.14 9.33 136.41 10.66V0H130.32V29.54H136.41V26.19C137.15 27.39 138.15 28.32 139.43 28.99C140.71 29.66 142.17 29.99 143.8 29.99C145.79 29.99 147.59 29.48 149.19 28.46C150.8 27.44 152.06 26.03 152.99 24.23C153.92 22.43 154.38 20.43 154.38 18.22C154.38 16.01 153.92 14.05 153.01 12.26C152.1 10.46 150.83 9.05 149.21 8.01ZM147.45 21.67C146.95 22.67 146.25 23.44 145.37 24C144.48 24.56 143.46 24.84 142.29 24.84C141.12 24.84 140.05 24.55 139.17 23.96C138.28 23.37 137.6 22.62 137.13 21.69C136.65 20.76 136.42 19.82 136.42 18.87V17.6C136.42 16.67 136.66 15.76 137.13 14.84C137.61 13.93 138.29 13.17 139.17 12.57C140.05 11.97 141.1 11.67 142.29 11.67C143.48 11.67 144.49 11.95 145.37 12.51C146.25 13.07 146.95 13.84 147.45 14.84C147.95 15.83 148.21 16.97 148.21 18.25C148.21 19.53 147.96 20.67 147.45 21.66V21.67Z" fill="#1D4537"/>
<path d="M178.36 17.44C178.36 15.26 177.92 13.34 177.03 11.68C176.14 10.02 174.91 8.72 173.33 7.78C171.75 6.84 169.94 6.37 167.9 6.37C165.69 6.37 163.71 6.89 161.94 7.94C160.17 8.99 158.79 10.43 157.79 12.25C156.8 14.07 156.3 16.12 156.3 18.38C156.3 20.64 156.82 22.66 157.85 24.45C158.88 26.23 160.34 27.62 162.22 28.62C164.1 29.61 166.25 30.11 168.67 30.11C170.06 30.11 171.41 29.95 172.73 29.64C174.05 29.33 175.15 28.88 176.02 28.31V23.37C175.15 23.97 174.15 24.43 173.02 24.74C171.89 25.05 170.73 25.21 169.53 25.21C167.95 25.21 166.6 24.94 165.49 24.39C164.38 23.84 163.52 23.05 162.94 22C162.59 21.37 162.36 20.67 162.22 19.9H178.2C178.31 18.84 178.36 18.02 178.36 17.45V17.44ZM164.86 11.85C165.74 11.33 166.75 11.07 167.86 11.07C168.84 11.07 169.71 11.28 170.47 11.68C171.23 12.09 171.82 12.66 172.23 13.4C172.63 14.12 172.83 14.96 172.84 15.89H162.21C162.33 15.24 162.52 14.64 162.79 14.09C163.28 13.11 163.97 12.36 164.85 11.84L164.86 11.85Z" fill="#1D4537"/>
</g>
<defs>
<clipPath id="clip0_3_5">
<rect width="178.36" height="30.11" fill="white"/>
</clipPath>
</defs>
</svg>
